<mxfile host="app.diagrams.net" agent="Mozilla/5.0 (Windows NT 10.0; Win64; x64) AppleWebKit/537.36 (KHTML, like Gecko) Chrome/135.0.0.0 Safari/537.36 Edg/135.0.0.0" version="26.2.14">
  <diagram name="PÃ¡gina-1" id="1w6R6jaRtwUqlfPWIcSL">
    <mxGraphModel dx="1371" dy="788" grid="1" gridSize="10" guides="1" tooltips="1" connect="1" arrows="1" fold="1" page="1" pageScale="1" pageWidth="827" pageHeight="1169" math="0" shadow="0">
      <root>
        <mxCell id="0" />
        <mxCell id="1" parent="0" />
        <mxCell id="Gt5QNJNXdKus-KMSzOH9-13" value="" style="edgeStyle=orthogonalEdgeStyle;rounded=0;orthogonalLoop=1;jettySize=auto;html=1;" edge="1" parent="1" source="Gt5QNJNXdKus-KMSzOH9-2" target="Gt5QNJNXdKus-KMSzOH9-6">
          <mxGeometry relative="1" as="geometry">
            <mxPoint x="405.4000000000001" y="230" as="targetPoint" />
            <Array as="points">
              <mxPoint x="320" y="110" />
              <mxPoint x="320" y="307" />
            </Array>
          </mxGeometry>
        </mxCell>
        <mxCell id="Gt5QNJNXdKus-KMSzOH9-2" value="" style="outlineConnect=0;dashed=0;verticalLabelPosition=bottom;verticalAlign=top;align=center;html=1;shape=mxgraph.aws3.mobile_client;fillColor=#D2D3D3;gradientColor=none;" vertex="1" parent="1">
          <mxGeometry x="160.8" y="70" width="40" height="80" as="geometry" />
        </mxCell>
        <mxCell id="Gt5QNJNXdKus-KMSzOH9-6" value="" style="image;aspect=fixed;html=1;points=[];align=center;fontSize=12;image=img/lib/azure2/databases/SQL_Server.svg;" vertex="1" parent="1">
          <mxGeometry x="380" y="272.84000000000003" width="68" height="68" as="geometry" />
        </mxCell>
        <mxCell id="Gt5QNJNXdKus-KMSzOH9-19" style="edgeStyle=orthogonalEdgeStyle;rounded=0;orthogonalLoop=1;jettySize=auto;html=1;" edge="1" parent="1" source="Gt5QNJNXdKus-KMSzOH9-12" target="Gt5QNJNXdKus-KMSzOH9-6">
          <mxGeometry relative="1" as="geometry">
            <Array as="points">
              <mxPoint x="320" y="241" />
              <mxPoint x="320" y="307" />
            </Array>
          </mxGeometry>
        </mxCell>
        <mxCell id="Gt5QNJNXdKus-KMSzOH9-12" value="" style="image;aspect=fixed;html=1;points=[];align=center;fontSize=12;image=img/lib/azure2/other/Defender_Engineering_Station.svg;" vertex="1" parent="1">
          <mxGeometry x="150" y="210" width="68" height="62.839999999999996" as="geometry" />
        </mxCell>
        <mxCell id="Gt5QNJNXdKus-KMSzOH9-23" style="edgeStyle=orthogonalEdgeStyle;rounded=0;orthogonalLoop=1;jettySize=auto;html=1;" edge="1" parent="1" target="Gt5QNJNXdKus-KMSzOH9-22">
          <mxGeometry relative="1" as="geometry">
            <mxPoint x="660" y="306.8399999999999" as="sourcePoint" />
          </mxGeometry>
        </mxCell>
        <mxCell id="Gt5QNJNXdKus-KMSzOH9-24" style="edgeStyle=orthogonalEdgeStyle;rounded=0;orthogonalLoop=1;jettySize=auto;html=1;" edge="1" parent="1" source="Gt5QNJNXdKus-KMSzOH9-22" target="Gt5QNJNXdKus-KMSzOH9-6">
          <mxGeometry relative="1" as="geometry" />
        </mxCell>
        <mxCell id="Gt5QNJNXdKus-KMSzOH9-25" style="edgeStyle=orthogonalEdgeStyle;rounded=0;orthogonalLoop=1;jettySize=auto;html=1;" edge="1" parent="1" source="Gt5QNJNXdKus-KMSzOH9-22">
          <mxGeometry relative="1" as="geometry">
            <mxPoint x="660" y="306.8399999999999" as="targetPoint" />
          </mxGeometry>
        </mxCell>
        <mxCell id="Gt5QNJNXdKus-KMSzOH9-22" value="" style="sketch=0;pointerEvents=1;shadow=0;dashed=0;html=1;strokeColor=none;fillColor=#505050;labelPosition=center;verticalLabelPosition=bottom;verticalAlign=top;outlineConnect=0;align=center;shape=mxgraph.office.services.web_services;" vertex="1" parent="1">
          <mxGeometry x="510" y="278.84" width="60" height="56" as="geometry" />
        </mxCell>
        <mxCell id="Gt5QNJNXdKus-KMSzOH9-26" value="" style="sketch=0;outlineConnect=0;fontColor=#232F3E;gradientColor=none;fillColor=#232F3D;strokeColor=none;dashed=0;verticalLabelPosition=bottom;verticalAlign=top;align=center;html=1;fontSize=12;fontStyle=0;aspect=fixed;pointerEvents=1;shape=mxgraph.aws4.marketplace;" vertex="1" parent="1">
          <mxGeometry x="680" y="273" width="78" height="78" as="geometry" />
        </mxCell>
        <mxCell id="Gt5QNJNXdKus-KMSzOH9-29" style="edgeStyle=orthogonalEdgeStyle;rounded=0;orthogonalLoop=1;jettySize=auto;html=1;" edge="1" parent="1" source="Gt5QNJNXdKus-KMSzOH9-27" target="Gt5QNJNXdKus-KMSzOH9-6">
          <mxGeometry relative="1" as="geometry">
            <Array as="points">
              <mxPoint x="320" y="385" />
              <mxPoint x="320" y="307" />
            </Array>
          </mxGeometry>
        </mxCell>
        <mxCell id="Gt5QNJNXdKus-KMSzOH9-31" style="edgeStyle=orthogonalEdgeStyle;rounded=0;orthogonalLoop=1;jettySize=auto;html=1;" edge="1" parent="1" source="Gt5QNJNXdKus-KMSzOH9-27" target="Gt5QNJNXdKus-KMSzOH9-30">
          <mxGeometry relative="1" as="geometry" />
        </mxCell>
        <mxCell id="Gt5QNJNXdKus-KMSzOH9-27" value="" style="image;sketch=0;aspect=fixed;html=1;points=[];align=center;fontSize=12;image=img/lib/mscae/Store_Marketplace.svg;" vertex="1" parent="1">
          <mxGeometry x="150" y="350" width="61.6" height="70" as="geometry" />
        </mxCell>
        <mxCell id="Gt5QNJNXdKus-KMSzOH9-34" style="edgeStyle=orthogonalEdgeStyle;rounded=0;orthogonalLoop=1;jettySize=auto;html=1;" edge="1" parent="1" source="Gt5QNJNXdKus-KMSzOH9-30" target="Gt5QNJNXdKus-KMSzOH9-33">
          <mxGeometry relative="1" as="geometry" />
        </mxCell>
        <mxCell id="Gt5QNJNXdKus-KMSzOH9-30" value="Log" style="html=1;whiteSpace=wrap;strokeColor=none;fillColor=#0079D6;labelPosition=center;verticalLabelPosition=middle;verticalAlign=top;align=center;fontSize=12;outlineConnect=0;spacingTop=-6;fontColor=#FFFFFF;sketch=0;shape=mxgraph.sitemap.log;" vertex="1" parent="1">
          <mxGeometry x="145.8" y="470" width="70" height="70" as="geometry" />
        </mxCell>
        <mxCell id="Gt5QNJNXdKus-KMSzOH9-33" value="" style="sketch=0;outlineConnect=0;fontColor=#232F3E;gradientColor=none;fillColor=#8C4FFF;strokeColor=none;dashed=0;verticalLabelPosition=bottom;verticalAlign=top;align=center;html=1;fontSize=12;fontStyle=0;aspect=fixed;pointerEvents=1;shape=mxgraph.aws4.data_lake_resource_icon;" vertex="1" parent="1">
          <mxGeometry x="370" y="474" width="62" height="62" as="geometry" />
        </mxCell>
      </root>
    </mxGraphModel>
  </diagram>
</mxfile>
